# xmcd CD database file
#
# Track frame offsets:
#	150
#	17585
#	38043
#	58810
#	75078
#	98103
#	125698
#	141555
#	157095
#	177095
#	198170
#
# Disc length: 2912 seconds
#
# Revision: 0
# Processed by: cddbd v1.5.1PL0 Copyright (c) Steve Scherf et al.
# Submitted via: CDex 1.50
#
DISCID=8c0b5e0b
DTITLE=Angelina - MUSE
DYEAR=2004
DGENRE=Japanese Pop
TTITLE0=My Life
TTITLE1=赤いメロディー
TTITLE2=babybayboo(Album Version)
TTITLE3=LYRICAL
TTITLE4=my name
TTITLE5=Ride
TTITLE6=Know the lies
TTITLE7=Poison Berries
TTITLE8=Pathetic(Album Version)
TTITLE9=Telephone booth
TTITLE10=Never Before
EXTD=YEAR: 2004
EXTT0=
EXTT1=
EXTT2=
EXTT3=
EXTT4=
EXTT5=
EXTT6=
EXTT7=
EXTT8=
EXTT9=
EXTT10=
PLAYORDER=
